<?xml version="1.0" encoding="UTF-8" standalone="no"?>
<!DOCTYPE svg PUBLIC "-//W3C//DTD SVG 1.1//EN"
 "http://www.w3.org/Graphics/SVG/1.1/DTD/svg11.dtd">
<!-- Generated by graphviz version 9.0.0 (20230911.1827)
 -->
<!-- Title: src/entrypoint_native.h Pages: 1 -->
<svg width="406pt" height="83pt"
 viewBox="0.00 0.00 406.25 82.50" xmlns="http://www.w3.org/2000/svg" xmlns:xlink="http://www.w3.org/1999/xlink">
<g id="graph0" class="graph" transform="scale(1 1) rotate(0) translate(4 78.5)">
<title>src/entrypoint_native.h</title>
<!-- Node1 -->
<g id="Node000001" class="node">
<title>Node1</title>
<g id="a_Node000001"><a xlink:title=" ">
<polygon fill="#999999" stroke="#666666" points="239.5,-74.5 126,-74.5 126,-55.25 239.5,-55.25 239.5,-74.5"/>
<text text-anchor="middle" x="182.75" y="-61" font-family="Helvetica,sans-Serif" font-size="10.00">src/entrypoint_native.h</text>
</a>
</g>
</g>
<!-- Node2 -->
<g id="Node000002" class="node">
<title>Node2</title>
<g id="a_Node000002"><a xlink:title=" ">
<polygon fill="#e0e0e0" stroke="#999999" points="53.5,-19.25 0,-19.25 0,0 53.5,0 53.5,-19.25"/>
<text text-anchor="middle" x="26.75" y="-5.75" font-family="Helvetica,sans-Serif" font-size="10.00">iostream</text>
</a>
</g>
</g>
<!-- Node1&#45;&gt;Node2 -->
<g id="edge1_Node000001_Node000002" class="edge">
<title>Node1&#45;&gt;Node2</title>
<g id="a_edge1_Node000001_Node000002"><a xlink:title=" ">
<path fill="none" stroke="#63b8ff" d="M156.29,-54.84C130.96,-46.2 92.52,-33.07 64.08,-23.37"/>
<polygon fill="#63b8ff" stroke="#63b8ff" points="65.37,-20.11 54.78,-20.19 63.11,-26.73 65.37,-20.11"/>
</a>
</g>
</g>
<!-- Node3 -->
<g id="Node000003" class="node">
<title>Node3</title>
<g id="a_Node000003"><a xlink:title=" ">
<polygon fill="#e0e0e0" stroke="#999999" points="111.75,-19.25 71.75,-19.25 71.75,0 111.75,0 111.75,-19.25"/>
<text text-anchor="middle" x="91.75" y="-5.75" font-family="Helvetica,sans-Serif" font-size="10.00">string</text>
</a>
</g>
</g>
<!-- Node1&#45;&gt;Node3 -->
<g id="edge2_Node000001_Node000003" class="edge">
<title>Node1&#45;&gt;Node3</title>
<g id="a_edge2_Node000001_Node000003"><a xlink:title=" ">
<path fill="none" stroke="#63b8ff" d="M167.31,-54.84C153.59,-46.81 133.25,-34.91 117.13,-25.48"/>
<polygon fill="#63b8ff" stroke="#63b8ff" points="118.97,-22.5 108.57,-20.47 115.43,-28.54 118.97,-22.5"/>
</a>
</g>
</g>
<!-- Node4 -->
<g id="Node000004" class="node">
<title>Node4</title>
<g id="a_Node000004"><a xlink:title=" ">
<polygon fill="#e0e0e0" stroke="#999999" points="175.38,-19.25 130.12,-19.25 130.12,0 175.38,0 175.38,-19.25"/>
<text text-anchor="middle" x="152.75" y="-5.75" font-family="Helvetica,sans-Serif" font-size="10.00">chrono</text>
</a>
</g>
</g>
<!-- Node1&#45;&gt;Node4 -->
<g id="edge3_Node000001_Node000004" class="edge">
<title>Node1&#45;&gt;Node4</title>
<g id="a_edge3_Node000001_Node000004"><a xlink:title=" ">
<path fill="none" stroke="#63b8ff" d="M177.8,-55.08C173.87,-48.11 168.24,-38.12 163.31,-29.37"/>
<polygon fill="#63b8ff" stroke="#63b8ff" points="166.51,-27.92 158.55,-20.93 160.41,-31.36 166.51,-27.92"/>
</a>
</g>
</g>
<!-- Node5 -->
<g id="Node000005" class="node">
<title>Node5</title>
<g id="a_Node000005"><a xlink:title=" ">
<polygon fill="#e0e0e0" stroke="#999999" points="233.75,-19.25 193.75,-19.25 193.75,0 233.75,0 233.75,-19.25"/>
<text text-anchor="middle" x="213.75" y="-5.75" font-family="Helvetica,sans-Serif" font-size="10.00">ctime</text>
</a>
</g>
</g>
<!-- Node1&#45;&gt;Node5 -->
<g id="edge4_Node000001_Node000005" class="edge">
<title>Node1&#45;&gt;Node5</title>
<g id="a_edge4_Node000001_Node000005"><a xlink:title=" ">
<path fill="none" stroke="#63b8ff" d="M187.87,-55.08C191.93,-48.11 197.74,-38.12 202.84,-29.37"/>
<polygon fill="#63b8ff" stroke="#63b8ff" points="205.75,-31.32 207.76,-20.92 199.7,-27.8 205.75,-31.32"/>
</a>
</g>
</g>
<!-- Node6 -->
<g id="Node000006" class="node">
<title>Node6</title>
<g id="a_Node000006"><a xlink:title=" ">
<polygon fill="#e0e0e0" stroke="#999999" points="301.62,-19.25 251.88,-19.25 251.88,0 301.62,0 301.62,-19.25"/>
<text text-anchor="middle" x="276.75" y="-5.75" font-family="Helvetica,sans-Serif" font-size="10.00">unistd.h</text>
</a>
</g>
</g>
<!-- Node1&#45;&gt;Node6 -->
<g id="edge5_Node000001_Node000006" class="edge">
<title>Node1&#45;&gt;Node6</title>
<g id="a_edge5_Node000001_Node000006"><a xlink:title=" ">
<path fill="none" stroke="#63b8ff" d="M198.7,-54.84C213.01,-46.73 234.28,-34.68 251,-25.21"/>
<polygon fill="#63b8ff" stroke="#63b8ff" points="252.43,-28.42 259.41,-20.45 248.98,-22.33 252.43,-28.42"/>
</a>
</g>
</g>
<!-- Node7 -->
<g id="Node000007" class="node">
<title>Node7</title>
<g id="a_Node000007"><a xlink:title=" ">
<polygon fill="#e0e0e0" stroke="#999999" points="398.25,-19.25 319.25,-19.25 319.25,0 398.25,0 398.25,-19.25"/>
<text text-anchor="middle" x="358.75" y="-5.75" font-family="Helvetica,sans-Serif" font-size="10.00">sys/utsname.h</text>
</a>
</g>
</g>
<!-- Node1&#45;&gt;Node7 -->
<g id="edge6_Node000001_Node000007" class="edge">
<title>Node1&#45;&gt;Node7</title>
<g id="a_edge6_Node000001_Node000007"><a xlink:title=" ">
<path fill="none" stroke="#63b8ff" d="M212.61,-54.84C241.56,-46.08 285.7,-32.73 317.9,-22.98"/>
<polygon fill="#63b8ff" stroke="#63b8ff" points="318.74,-26.39 327.3,-20.14 316.71,-19.69 318.74,-26.39"/>
</a>
</g>
</g>
</g>
</svg>
