<?xml version="1.0" encoding="UTF-8" standalone="no"?>
<!DOCTYPE svg PUBLIC "-//W3C//DTD SVG 1.1//EN"
 "http://www.w3.org/Graphics/SVG/1.1/DTD/svg11.dtd">
<!-- Generated by graphviz version 9.0.0 (20230911.1827)
 -->
<!-- Title: lib/sample_interface/i_temperature_sensor.h Pages: 1 -->
<svg width="456pt" height="172pt"
 viewBox="0.00 0.00 455.75 171.50" xmlns="http://www.w3.org/2000/svg" xmlns:xlink="http://www.w3.org/1999/xlink">
<g id="graph0" class="graph" transform="scale(1 1) rotate(0) translate(4 167.5)">
<title>lib/sample_interface/i_temperature_sensor.h</title>
<!-- Node1 -->
<g id="Node000001" class="node">
<title>Node1</title>
<g id="a_Node000001"><a xlink:title=" ">
<polygon fill="#999999" stroke="#666666" points="302.38,-163.5 182.12,-163.5 182.12,-133 302.38,-133 302.38,-163.5"/>
<text text-anchor="start" x="190.12" y="-150" font-family="Helvetica,sans-Serif" font-size="10.00">lib/sample_interface</text>
<text text-anchor="middle" x="242.25" y="-138.75" font-family="Helvetica,sans-Serif" font-size="10.00">/i_temperature_sensor.h</text>
</a>
</g>
</g>
<!-- Node2 -->
<g id="Node000002" class="node">
<title>Node2</title>
<g id="a_Node000002"><a xlink:href="mock__temperature__sensor_8cpp.html" target="_top" xlink:title=" ">
<polygon fill="white" stroke="#666666" points="152.5,-97 0,-97 0,-66.5 152.5,-66.5 152.5,-97"/>
<text text-anchor="start" x="8" y="-83.5" font-family="Helvetica,sans-Serif" font-size="10.00">lib/sample_interface</text>
<text text-anchor="middle" x="76.25" y="-72.25" font-family="Helvetica,sans-Serif" font-size="10.00">/mock_temperature_sensor.cpp</text>
</a>
</g>
</g>
<!-- Node1&#45;&gt;Node2 -->
<g id="edge1_Node000001_Node000002" class="edge">
<title>Node1&#45;&gt;Node2</title>
<g id="a_edge1_Node000001_Node000002"><a xlink:title=" ">
<path fill="none" stroke="#63b8ff" d="M194.03,-128.51C168.57,-118.62 137.77,-106.65 114.06,-97.44"/>
<polygon fill="#63b8ff" stroke="#63b8ff" points="192.58,-131.71 203.17,-132.07 195.12,-125.18 192.58,-131.71"/>
</a>
</g>
</g>
<!-- Node4 -->
<g id="Node000004" class="node">
<title>Node4</title>
<g id="a_Node000004"><a xlink:href="real__temperature__sensor_8cpp.html" target="_top" xlink:title=" ">
<polygon fill="white" stroke="#666666" points="314.38,-97 170.12,-97 170.12,-66.5 314.38,-66.5 314.38,-97"/>
<text text-anchor="start" x="178.12" y="-83.5" font-family="Helvetica,sans-Serif" font-size="10.00">lib/sample_interface</text>
<text text-anchor="middle" x="242.25" y="-72.25" font-family="Helvetica,sans-Serif" font-size="10.00">/real_temperature_sensor.cpp</text>
</a>
</g>
</g>
<!-- Node1&#45;&gt;Node4 -->
<g id="edge3_Node000001_Node000004" class="edge">
<title>Node1&#45;&gt;Node4</title>
<g id="a_edge3_Node000001_Node000004"><a xlink:title=" ">
<path fill="none" stroke="#63b8ff" d="M242.25,-121.31C242.25,-113.14 242.25,-104.41 242.25,-97.33"/>
<polygon fill="#63b8ff" stroke="#63b8ff" points="238.75,-121.1 242.25,-131.1 245.75,-121.1 238.75,-121.1"/>
</a>
</g>
</g>
<!-- Node5 -->
<g id="Node000005" class="node">
<title>Node5</title>
<g id="a_Node000005"><a xlink:href="temperature__service_8h.html" target="_top" xlink:title=" ">
<polygon fill="white" stroke="#666666" points="447.75,-97 332.75,-97 332.75,-66.5 447.75,-66.5 447.75,-97"/>
<text text-anchor="start" x="340.75" y="-83.5" font-family="Helvetica,sans-Serif" font-size="10.00">lib/sample_interface</text>
<text text-anchor="middle" x="390.25" y="-72.25" font-family="Helvetica,sans-Serif" font-size="10.00">/temperature_service.h</text>
</a>
</g>
</g>
<!-- Node1&#45;&gt;Node5 -->
<g id="edge5_Node000001_Node000005" class="edge">
<title>Node1&#45;&gt;Node5</title>
<g id="a_edge5_Node000001_Node000005"><a xlink:title=" ">
<path fill="none" stroke="#63b8ff" d="M286.15,-128.12C308.68,-118.3 335.68,-106.53 356.54,-97.44"/>
<polygon fill="#63b8ff" stroke="#63b8ff" points="284.99,-124.81 277.22,-132.01 287.79,-131.22 284.99,-124.81"/>
</a>
</g>
</g>
<!-- Node3 -->
<g id="Node000003" class="node">
<title>Node3</title>
<g id="a_Node000003"><a xlink:href="temperature__manager_8h.html" target="_top" xlink:title=" ">
<polygon fill="white" stroke="#666666" points="302.75,-30.5 181.75,-30.5 181.75,0 302.75,0 302.75,-30.5"/>
<text text-anchor="start" x="189.75" y="-17" font-family="Helvetica,sans-Serif" font-size="10.00">lib/sample_interface</text>
<text text-anchor="middle" x="242.25" y="-5.75" font-family="Helvetica,sans-Serif" font-size="10.00">/temperature_manager.h</text>
</a>
</g>
</g>
<!-- Node2&#45;&gt;Node3 -->
<g id="edge2_Node000002_Node000003" class="edge">
<title>Node2&#45;&gt;Node3</title>
<g id="a_edge2_Node000002_Node000003"><a xlink:title=" ">
<path fill="none" stroke="#63b8ff" d="M124.47,-62.01C149.93,-52.12 180.73,-40.15 204.44,-30.94"/>
<polygon fill="#63b8ff" stroke="#63b8ff" points="123.38,-58.68 115.33,-65.57 125.92,-65.21 123.38,-58.68"/>
</a>
</g>
</g>
<!-- Node4&#45;&gt;Node3 -->
<g id="edge4_Node000004_Node000003" class="edge">
<title>Node4&#45;&gt;Node3</title>
<g id="a_edge4_Node000004_Node000003"><a xlink:title=" ">
<path fill="none" stroke="#63b8ff" d="M242.25,-54.81C242.25,-46.64 242.25,-37.91 242.25,-30.83"/>
<polygon fill="#63b8ff" stroke="#63b8ff" points="238.75,-54.6 242.25,-64.6 245.75,-54.6 238.75,-54.6"/>
</a>
</g>
</g>
<!-- Node5&#45;&gt;Node3 -->
<g id="edge6_Node000005_Node000003" class="edge">
<title>Node5&#45;&gt;Node3</title>
<g id="a_edge6_Node000005_Node000003"><a xlink:title=" ">
<path fill="none" stroke="#63b8ff" d="M346.35,-61.62C323.82,-51.8 296.82,-40.03 275.96,-30.94"/>
<polygon fill="#63b8ff" stroke="#63b8ff" points="344.71,-64.72 355.28,-65.51 347.51,-58.31 344.71,-64.72"/>
</a>
</g>
</g>
</g>
</svg>
