<?xml version="1.0" encoding="UTF-8" standalone="no"?>
<!DOCTYPE svg PUBLIC "-//W3C//DTD SVG 1.1//EN"
 "http://www.w3.org/Graphics/SVG/1.1/DTD/svg11.dtd">
<!-- Generated by graphviz version 9.0.0 (20230911.1827)
 -->
<!-- Title: Graphical Class Hierarchy Pages: 1 -->
<svg width="274pt" height="64pt"
 viewBox="0.00 0.00 274.00 64.25" xmlns="http://www.w3.org/2000/svg" xmlns:xlink="http://www.w3.org/1999/xlink">
<g id="graph0" class="graph" transform="scale(1 1) rotate(0) translate(4 60.25)">
<title>Graphical Class Hierarchy</title>
<!-- Node0 -->
<g id="Node000000" class="node">
<title>Node0</title>
<g id="a_Node000000"><a xlink:href="classITemperatureSensor.html" target="_top" xlink:title=" ">
<polygon fill="white" stroke="#666666" points="104.5,-37.25 0,-37.25 0,-18 104.5,-18 104.5,-37.25"/>
<text text-anchor="middle" x="52.25" y="-23.75" font-family="Helvetica,sans-Serif" font-size="10.00">ITemperatureSensor</text>
</a>
</g>
</g>
<!-- Node1 -->
<g id="Node000001" class="node">
<title>Node1</title>
<g id="a_Node000001"><a xlink:href="classRealTemperatureSensor.html" target="_top" xlink:title=" ">
<polygon fill="white" stroke="#666666" points="263.75,-56.25 142.75,-56.25 142.75,-37 263.75,-37 263.75,-56.25"/>
<text text-anchor="middle" x="203.25" y="-42.75" font-family="Helvetica,sans-Serif" font-size="10.00">RealTemperatureSensor</text>
</a>
</g>
</g>
<!-- Node0&#45;&gt;Node1 -->
<g id="edge1_Node000000_Node000001" class="edge">
<title>Node0&#45;&gt;Node1</title>
<g id="a_edge1_Node000000_Node000001"><a xlink:title=" ">
<path fill="none" stroke="#63b8ff" d="M116.21,-35.65C124.91,-36.76 133.83,-37.9 142.46,-39"/>
<polygon fill="#63b8ff" stroke="#63b8ff" points="116.81,-32.2 106.45,-34.41 115.92,-39.15 116.81,-32.2"/>
</a>
</g>
</g>
<!-- Node2 -->
<g id="Node000002" class="node">
<title>Node2</title>
<g id="a_Node000002"><a xlink:href="classTemperatureSensorMock.html" target="_top" xlink:title=" ">
<polygon fill="white" stroke="#666666" points="266,-19.25 140.5,-19.25 140.5,0 266,0 266,-19.25"/>
<text text-anchor="middle" x="203.25" y="-5.75" font-family="Helvetica,sans-Serif" font-size="10.00">TemperatureSensorMock</text>
</a>
</g>
</g>
<!-- Node0&#45;&gt;Node2 -->
<g id="edge2_Node000000_Node000002" class="edge">
<title>Node0&#45;&gt;Node2</title>
<g id="a_edge2_Node000000_Node000002"><a xlink:title=" ">
<path fill="none" stroke="#63b8ff" d="M116.32,-20.01C124.21,-19.05 132.26,-18.08 140.13,-17.13"/>
<polygon fill="#63b8ff" stroke="#63b8ff" points="115.96,-16.52 106.45,-21.2 116.8,-23.47 115.96,-16.52"/>
</a>
</g>
</g>
</g>
</svg>
