<?xml version="1.0" encoding="UTF-8" standalone="no"?>
<!DOCTYPE svg PUBLIC "-//W3C//DTD SVG 1.1//EN"
 "http://www.w3.org/Graphics/SVG/1.1/DTD/svg11.dtd">
<!-- Generated by graphviz version 9.0.0 (20230911.1827)
 -->
<!-- Title: lib/sample_interface/temperature_manager.h Pages: 1 -->
<svg width="447pt" height="149pt"
 viewBox="0.00 0.00 446.75 149.00" xmlns="http://www.w3.org/2000/svg" xmlns:xlink="http://www.w3.org/1999/xlink">
<g id="graph0" class="graph" transform="scale(1 1) rotate(0) translate(4 145)">
<title>lib/sample_interface/temperature_manager.h</title>
<!-- Node1 -->
<g id="Node000001" class="node">
<title>Node1</title>
<g id="a_Node000001"><a xlink:title=" ">
<polygon fill="#999999" stroke="#666666" points="261.5,-141 140.5,-141 140.5,-110.5 261.5,-110.5 261.5,-141"/>
<text text-anchor="start" x="148.5" y="-127.5" font-family="Helvetica,sans-Serif" font-size="10.00">lib/sample_interface</text>
<text text-anchor="middle" x="201" y="-116.25" font-family="Helvetica,sans-Serif" font-size="10.00">/temperature_manager.h</text>
</a>
</g>
</g>
<!-- Node2 -->
<g id="Node000002" class="node">
<title>Node2</title>
<g id="a_Node000002"><a xlink:href="temperature__service_8h.html" target="_top" xlink:title=" ">
<polygon fill="white" stroke="#666666" points="112,-74.5 0,-74.5 0,-55.25 112,-55.25 112,-74.5"/>
<text text-anchor="middle" x="56" y="-61" font-family="Helvetica,sans-Serif" font-size="10.00">temperature_service.h</text>
</a>
</g>
</g>
<!-- Node1&#45;&gt;Node2 -->
<g id="edge1_Node000001_Node000002" class="edge">
<title>Node1&#45;&gt;Node2</title>
<g id="a_edge1_Node000001_Node000002"><a xlink:title=" ">
<path fill="none" stroke="#63b8ff" d="M164.78,-110.05C141.43,-100.56 111.3,-88.33 88.68,-79.14"/>
<polygon fill="#63b8ff" stroke="#63b8ff" points="90.22,-75.99 79.64,-75.47 87.59,-82.48 90.22,-75.99"/>
</a>
</g>
</g>
<!-- Node4 -->
<g id="Node000004" class="node">
<title>Node4</title>
<g id="a_Node000004"><a xlink:href="real__temperature__sensor_8cpp.html" target="_top" xlink:title=" ">
<polygon fill="white" stroke="#666666" points="271.62,-74.5 130.38,-74.5 130.38,-55.25 271.62,-55.25 271.62,-74.5"/>
<text text-anchor="middle" x="201" y="-61" font-family="Helvetica,sans-Serif" font-size="10.00">real_temperature_sensor.cpp</text>
</a>
</g>
</g>
<!-- Node1&#45;&gt;Node4 -->
<g id="edge3_Node000001_Node000004" class="edge">
<title>Node1&#45;&gt;Node4</title>
<g id="a_edge3_Node000001_Node000004"><a xlink:title=" ">
<path fill="none" stroke="#63b8ff" d="M201,-110.2C201,-102.96 201,-94.09 201,-86.19"/>
<polygon fill="#63b8ff" stroke="#63b8ff" points="204.5,-86.46 201,-76.46 197.5,-86.46 204.5,-86.46"/>
</a>
</g>
</g>
<!-- Node5 -->
<g id="Node000005" class="node">
<title>Node5</title>
<g id="a_Node000005"><a xlink:href="mock__temperature__sensor_8cpp.html" target="_top" xlink:title=" ">
<polygon fill="white" stroke="#666666" points="438.75,-74.5 289.25,-74.5 289.25,-55.25 438.75,-55.25 438.75,-74.5"/>
<text text-anchor="middle" x="364" y="-61" font-family="Helvetica,sans-Serif" font-size="10.00">mock_temperature_sensor.cpp</text>
</a>
</g>
</g>
<!-- Node1&#45;&gt;Node5 -->
<g id="edge5_Node000001_Node000005" class="edge">
<title>Node1&#45;&gt;Node5</title>
<g id="a_edge5_Node000001_Node000005"><a xlink:title=" ">
<path fill="none" stroke="#63b8ff" d="M241.71,-110.05C268.32,-100.43 302.76,-88 328.3,-78.77"/>
<polygon fill="#63b8ff" stroke="#63b8ff" points="329.36,-82.11 337.58,-75.42 326.98,-75.52 329.36,-82.11"/>
</a>
</g>
</g>
<!-- Node3 -->
<g id="Node000003" class="node">
<title>Node3</title>
<g id="a_Node000003"><a xlink:href="i__temperature__sensor_8h.html" target="_top" xlink:title=" ">
<polygon fill="white" stroke="#666666" points="259.62,-19.25 142.38,-19.25 142.38,0 259.62,0 259.62,-19.25"/>
<text text-anchor="middle" x="201" y="-5.75" font-family="Helvetica,sans-Serif" font-size="10.00">i_temperature_sensor.h</text>
</a>
</g>
</g>
<!-- Node2&#45;&gt;Node3 -->
<g id="edge2_Node000002_Node000003" class="edge">
<title>Node2&#45;&gt;Node3</title>
<g id="a_edge2_Node000002_Node000003"><a xlink:title=" ">
<path fill="none" stroke="#63b8ff" d="M80.6,-54.84C103.93,-46.27 139.24,-33.31 165.6,-23.63"/>
<polygon fill="#63b8ff" stroke="#63b8ff" points="166.68,-26.96 174.86,-20.22 164.27,-20.39 166.68,-26.96"/>
</a>
</g>
</g>
<!-- Node4&#45;&gt;Node3 -->
<g id="edge4_Node000004_Node000003" class="edge">
<title>Node4&#45;&gt;Node3</title>
<g id="a_edge4_Node000004_Node000003"><a xlink:title=" ">
<path fill="none" stroke="#63b8ff" d="M201,-55.08C201,-48.57 201,-39.42 201,-31.12"/>
<polygon fill="#63b8ff" stroke="#63b8ff" points="204.5,-31.12 201,-21.12 197.5,-31.12 204.5,-31.12"/>
</a>
</g>
</g>
<!-- Node5&#45;&gt;Node3 -->
<g id="edge6_Node000005_Node000003" class="edge">
<title>Node5&#45;&gt;Node3</title>
<g id="a_edge6_Node000005_Node000003"><a xlink:title=" ">
<path fill="none" stroke="#63b8ff" d="M336.35,-54.84C309.77,-46.16 269.36,-32.96 239.61,-23.24"/>
<polygon fill="#63b8ff" stroke="#63b8ff" points="240.82,-19.95 230.23,-20.17 238.64,-26.6 240.82,-19.95"/>
</a>
</g>
</g>
</g>
</svg>
